<svg id="_05-FULL-WHITE" data-name="05-FULL-WHITE" xmlns="http://www.w3.org/2000/svg" viewBox="0 0 75.93 75.93"><defs><style>.cls-1{fill:#e5c74a;}</style></defs><title>Twitter</title><g id="Twitter"><path class="cls-1" d="M883.13,641.83a38,38,0,1,0,38,38A38,38,0,0,0,883.13,641.83Zm14.43,29.92c0,0.34,0,.68,0,1,0,10.41-7.73,22.42-21.86,22.42a21.41,21.41,0,0,1-11.78-3.54,15.79,15.79,0,0,0,1.83.11,15.21,15.21,0,0,0,9.55-3.37,7.72,7.72,0,0,1-7.18-5.47,7.64,7.64,0,0,0,1.44.14,8.08,8.08,0,0,0,2.11-.28A7.77,7.77,0,0,1,865.6,675V675a7.21,7.21,0,0,0,3.41,1,8,8,0,0,1-2.44-10.52,21.61,21.61,0,0,0,15.83,8.23,7.62,7.62,0,0,1-.2-1.79,7.78,7.78,0,0,1,7.68-7.88,7.58,7.58,0,0,1,5.61,2.48,15,15,0,0,0,4.88-1.91,7.83,7.83,0,0,1-3.38,4.36,14.81,14.81,0,0,0,4.41-1.24A15.67,15.67,0,0,1,897.56,671.75Z" transform="translate(-845.16 -641.83)"/></g></svg>