<svg id="_05-FULL-WHITE" data-name="05-FULL-WHITE" xmlns="http://www.w3.org/2000/svg" viewBox="0 0 75.93 75.93"><defs><style>.cls-1{fill:#e5c74a}</style></defs><title>Instagram</title><g id="Instagram"><path class="cls-1" d="M1004.08 679.74a7.05 7.05 0 1 1 7 7 7 7 0 0 1-7-7z" transform="translate(-972.16 -641.83)"/><rect class="cls-1" x="46.44" y="23.87" width="6" height="6" rx="1.15" ry="1.15"/><path class="cls-1" d="M1021.39 676.7h4.21v16.74c0 .64-.14 1.26-.77 1.26h-27.5c-.63 0-.73-.62-.73-1.26V676.7h4.17c-.6 0-.8 2.24-.8 3.26a11.16 11.16 0 0 0 22.31.06c0-1.02-.15-3.32-.89-3.32z" transform="translate(-972.16 -641.83)"/><path class="cls-1" d="M1010.13 641.83a38 38 0 1 0 38 38 38 38 0 0 0-38-38zm19.47 51.85c0 2.4-2.14 4-4.54 4h-28c-2.41 0-4.51-1.62-4.51-4v-28c0-2.4 2.1-4 4.51-4h28c2.4 0 4.54 1.61 4.54 4v28z" transform="translate(-972.16 -641.83)"/></g></svg>