<svg id="_05-FULL-WHITE" data-name="05-FULL-WHITE" xmlns="http://www.w3.org/2000/svg" viewBox="0 0 75.93 75.93"><defs><style>.cls-1{fill:#e5c74a}</style></defs><title>Facebook</title><path class="cls-1" d="M368.13 640.37a38 38 0 1 0 38 38 38 38 0 0 0-38-38zm18.47 54c0 1.12-.55 2.31-1.66 2.31h-9.34v-14h4.75l.72-6h-5.47v-3.58c0-1.6.43-2.42 2.73-2.42h3.27v-5.23c-1-.07-2.55-.22-4.58-.22-4.22 0-7.42 2.58-7.42 7.32v4.13h-5v6h5v14h-17.32c-1.12 0-1.68-1.19-1.68-2.31v-32.64a1.76 1.76 0 0 1 1.68-2h32.66a1.75 1.75 0 0 1 1.66 2v32.66z" transform="translate(-330.16 -640.37)" id="Facebook"/></svg>