<svg id="Layer_1" data-name="Layer 1" xmlns="http://www.w3.org/2000/svg" viewBox="0 0 1000 200"><defs><style>.cls-1{fill:#bf9838}.cls-2{fill:#6e6f71}.cls-3{fill:#1f3667}.cls-4{fill:#fff}</style></defs><title>MIP_pluscoffee_branding_colors_web</title><path class="cls-1" d="M742.89 177.77c0 7.29 1.68 13.45 9.53 13.45A35.87 35.87 0 0 0 765 188.9v7.61c-3.76 1.76-8.81 2.32-12.57 2.32-13.53 0-17.86-8.41-17.86-21.06s4.32-21.06 17.86-21.06c3.76 0 8.81.56 12.57 2.32v7.61a35.87 35.87 0 0 0-12.57-2.32c-7.86 0-9.54 6.17-9.54 13.45zm56.53 21.06c-14.41 0-17.38-8.57-17.38-21.06s3-21.06 17.38-21.06c14.57 0 17.38 8.57 17.38 21.06s-2.8 21.06-17.38 21.06zm0-34.51c-8.57 0-9.21 5.84-9.21 13.45s.64 13.45 9.21 13.45c8.41 0 9.21-5.85 9.21-13.45s-.8-13.45-9.21-13.45zm61.33-19.13a28.38 28.38 0 0 0-6.65-.88c-4 0-6.81 1.52-6.81 5.2v8.25h11.85v7H847.3v33H842a2.74 2.74 0 0 1-2.74-2.74V164.8h-7.45v-5l7.45-2.08v-8.41c0-8.09 4.48-12.65 14.89-12.65a35.2 35.2 0 0 1 4.37.33 2.66 2.66 0 0 1 2.28 2.64v5.52zm40.76 0a28.39 28.39 0 0 0-6.65-.88c-4 0-6.81 1.52-6.81 5.2v8.25h11.85v7h-11.85v33h-5.35a2.74 2.74 0 0 1-2.74-2.74V164.8h-7.45v-5l7.45-2.08v-8.41c0-8.09 4.48-12.65 14.89-12.65a35.2 35.2 0 0 1 4.37.33 2.66 2.66 0 0 1 2.28 2.64v5.52zm21.78 36.43c.64 5.52 3 9.61 9.37 9.61a31.11 31.11 0 0 0 13.77-2.88v7.77a32.49 32.49 0 0 1-13.77 2.72c-13.53 0-17.86-8.41-17.86-21.06s4.32-21.06 17.86-21.06c14 0 15.93 9.85 15.93 21.06v3.84h-25.3zm-.08-7.13h16.89c-.08-5.28-.88-10.17-7.45-10.17-6.87 0-8.88 4.41-9.44 10.17zm51.49 7.13c.64 5.52 3 9.61 9.37 9.61a31.11 31.11 0 0 0 13.77-2.88v7.77a32.48 32.48 0 0 1-13.77 2.72c-13.53 0-17.86-8.41-17.86-21.06s4.32-21.06 17.86-21.06c14 0 15.93 9.85 15.93 21.06v3.84h-25.3zm-.08-7.13h16.89c-.08-5.28-.88-10.17-7.45-10.17-6.88 0-8.88 4.41-9.44 10.17zm-281.26-18.34H690v38.38a4.91 4.91 0 0 0 4.91 4.91h3.41v-38.38a4.91 4.91 0 0 0-4.96-4.91z"/><path class="cls-1" d="M672.47 174.3h43.29v6.99h-43.29z"/><path class="cls-2" d="M216.76 76h-11.2l-3 24.39c-.07.66-.22 1.69-.22 2 0 1.4.52 2 1.47 2 1.18 0 2.58-1 6-4.2 1.55-1.4 2.51-2.43 3.61-3.61l1.62 1.25a39.35 39.35 0 0 1-7 8c-3 2.73-4.79 3.83-6.71 3.83-2.51 0-4.05-2-4.05-5.23 0-.44.07-1.55.15-2.43l3.26-26h-6.63l.22-2.8h6.78l1.18-9.2H207l-1.11 9.21H217zm23.58 33.62a2.4 2.4 0 0 1-2.65-2.51c0-.15.07-1 .15-1.62L241.3 79a4.89 4.89 0 0 0 .07-.81c0-1.25-.37-1.62-1.4-1.62-1.55 0-3.54 1.11-8 4.72a74.63 74.63 0 0 0-5.6 4.94l-2.87 22.7h-4.64l5.9-47.53-8.25-1.11.22-1.55L230.1 56l-3.54 28.2c5.82-8.11 10.69-11.72 15.84-11.72q4 0 4 3.76a1.83 1.83 0 0 1-.07.66l-3.46 26.38a8 8 0 0 0-.07 1.25 1.68 1.68 0 0 0 .81 1.47l6.34-6.71 1.11 1c-2.06 4.99-6.96 9.33-10.72 9.33zm33.9-22.55c-3.39 1.92-7.44 2.8-14.08 3.32-.15 1.7-.22 2.43-.22 3.39.07 7.52 2.06 11.72 6 11.72 3.32 0 7.37-3.17 9.36-4.64l1.25 1.4c-4.5 4.86-8.92 7.37-12.53 7.37-5.9 0-9.36-5.23-9.36-13.34 0-6.85 2.28-13.56 6.19-17.83 3.61-4 7.81-6 11.94-6a5.67 5.67 0 0 1 6 6 9.59 9.59 0 0 1-4.55 8.61zm-4.72-11.72c-2.43 0-4.57 1.4-6.19 3.91a20.35 20.35 0 0 0-3 9.36 27.18 27.18 0 0 0 9.56-2.62c2.28-1.18 3.39-3.68 3.39-6.56 0-2.61-1.28-4.08-3.76-4.08zm85.99 33.54V71.6h-.15l-15.7 36.85h-6.34l-16-36.85h-.12v37.29h-9.14v-51H321l16 37.36 15.7-37.36h12.75v51h-9.87zm26.49 0v-51h30.07l-1 7.22h-18.86v14.3h16.29v7.22h-16.29v15h20.56l-1 7.22H382zm64.08-43.48v43.48h-10.25V65.41h-13.19v-7.52h36.7l-1 7.52h-12.26zm54.75 43.48l-5.89-12.31a22.76 22.76 0 0 0-4.72-6.89 8.24 8.24 0 0 0-5.67-2.1h-2.43v21.3h-10.18v-51h15.18q8.25 0 13.12 3.46a11.47 11.47 0 0 1 4.86 9.95 12.08 12.08 0 0 1-3.32 8.51 14.72 14.72 0 0 1-8.7 4.46v.15a16.28 16.28 0 0 1 6.19 3.06q2.73 2.17 5.82 8.14l6.78 13.26h-11.04zM484.54 65h-2.43v15.59h2.28a12.64 12.64 0 0 0 7.3-1.88q2.73-1.88 2.73-6.45 0-3.76-2.28-5.53t-7.6-1.73zm42.82 37.26q-7.07-7.37-7.07-18.86t7-18.83q7-7.41 18.83-7.41t18.86 7.33q7 7.33 7 18.9t-7 18.94q-7 7.3-18.86 7.3-11.69-.01-18.76-7.37zm8-32.5q-4 4.86-4 13.63t4 13.63a13 13 0 0 0 10.71 4.98q7.15 0 10.94-5t3.79-14.11q0-8.33-4.16-13.15a13.36 13.36 0 0 0-10.57-4.83 13.09 13.09 0 0 0-10.68 4.85zm77.84 39.13v-51h10.17v51H613.2zm43.8 0h-16.83v-51h15.7q13.63 0 21.15 6.6t7.52 18.83q0 11.87-7.22 18.72T657 108.89zm-1-43.77h-5.75v36.55h4.72q9.87 0 14.26-4.57t4.38-13.49q0-9.21-4.57-13.85t-12.95-4.64zm43.13 43.77v-51h30.07l-1 7.22h-18.9v14.3h16.29v7.22H709.3v15h20.56l-1 7.22h-29.73zm58.28-51h8.92l18.94 51h-10.69l-4.71-13.19h-17.25L748 108.89h-9.51zm4.05 12.23l-6.41 18.28h12.45zm35.6 28.75a42.12 42.12 0 0 0 6.19 2.58 20.12 20.12 0 0 0 6.26 1 8.14 8.14 0 0 0 5.12-1.51 5.46 5.46 0 0 0 2-4.61q0-4.64-7.74-8.33t-11-7.44a13.61 13.61 0 0 1-3.28-9.28 12.54 12.54 0 0 1 4.7-10.28q4.75-3.79 12.56-3.8a36.42 36.42 0 0 1 6.85.66 27.05 27.05 0 0 1 6.56 2.14l-2.8 7a36.78 36.78 0 0 0-5-1.84 17.64 17.64 0 0 0-4.9-.74 9.27 9.27 0 0 0-5.53 1.4 4.79 4.79 0 0 0-1.88 4.18q0 4.42 7.7 8.07t11 7.22q3.32 3.58 3.32 9.54 0 7-4.64 10.91t-12.82 3.9a38 38 0 0 1-7.88-.81 31.8 31.8 0 0 1-7.66-2.73zm70.81 10.02v-51h10.24v43.55H899l-1 7.44h-30.13zm57.41-51h8.92l18.94 51h-10.69l-4.72-13.19h-17.24l-4.64 13.19h-9.51zm4.05 12.23l-6.41 18.28h12.45zm52.54 38.77h-17.46v-51h15.11q8 0 12.6 3.28a10.74 10.74 0 0 1 4.64 9.32q0 8.4-9.29 11.79v.15q6.12.81 9.32 4.05a11.25 11.25 0 0 1 3.21 8.25 12.41 12.41 0 0 1-4.83 10.43q-4.82 3.73-13.3 3.73zM977 65h-2.36v14.56h3A8.94 8.94 0 0 0 984 77.5a7.67 7.67 0 0 0 2.21-5.89 5.8 5.8 0 0 0-2.21-5Q981.8 65 977 65zm1 21.66h-3.32v15.25h3.61q5.75 0 8.47-1.73t2.73-5.78q0-4.35-3.06-6a17.53 17.53 0 0 0-8.43-1.77z"/><path class="cls-3" d="M73.91.56l-9.8 8.29H0V156.4h147.83V8.85H83.72L73.91.56z"/><path class="cls-4" d="M35.27 44.37h4.55v84.32h-4.55zm14.55 0h4.55v51.77h-4.55zm14.54 0h4.55v84.32h-4.55zm14.55 0h4.55v84.32h-4.55zm14.55 0h4.55v84.32h-4.55zm14.55 0h4.55v51.77h-4.55z"/></svg>