<svg id="Layer_1" data-name="Layer 1" xmlns="http://www.w3.org/2000/svg" viewBox="0 0 1000 200"><defs><style>.cls-1{fill:#bf9838;}.cls-2{fill:#6e6f71;}.cls-3{fill:#1f3667;}.cls-4{fill:#fff;}</style></defs><title>MIP_pluscoffee_branding_colors_web</title><path class="cls-1" d="M742.89,177.77c0,7.29,1.68,13.45,9.53,13.45A35.87,35.87,0,0,0,765,188.9v7.61c-3.76,1.76-8.81,2.32-12.57,2.32-13.53,0-17.86-8.41-17.86-21.06s4.32-21.06,17.86-21.06c3.76,0,8.81.56,12.57,2.32v7.61a35.87,35.87,0,0,0-12.57-2.32C744.57,164.32,742.89,170.49,742.89,177.77Z"/><path class="cls-1" d="M799.42,198.83c-14.41,0-17.38-8.57-17.38-21.06s3-21.06,17.38-21.06c14.57,0,17.38,8.57,17.38,21.06S814,198.83,799.42,198.83Zm0-34.51c-8.57,0-9.21,5.84-9.21,13.45s0.64,13.45,9.21,13.45c8.41,0,9.21-5.85,9.21-13.45S807.83,164.32,799.42,164.32Z"/><path class="cls-1" d="M860.75,145.19a28.38,28.38,0,0,0-6.65-.88c-4,0-6.81,1.52-6.81,5.2v8.25h11.85v7H847.3v33H842a2.74,2.74,0,0,1-2.74-2.74V164.8h-7.45v-5l7.45-2.08v-8.41c0-8.09,4.48-12.65,14.89-12.65a35.2,35.2,0,0,1,4.37.33,2.66,2.66,0,0,1,2.28,2.64v5.52Z"/><path class="cls-1" d="M901.51,145.19a28.39,28.39,0,0,0-6.65-.88c-4,0-6.81,1.52-6.81,5.2v8.25H899.9v7H888.05v33h-5.35a2.74,2.74,0,0,1-2.74-2.74V164.8h-7.45v-5l7.45-2.08v-8.41c0-8.09,4.48-12.65,14.89-12.65a35.2,35.2,0,0,1,4.37.33,2.66,2.66,0,0,1,2.28,2.64v5.52Z"/><path class="cls-1" d="M923.29,181.62c0.64,5.52,3,9.61,9.37,9.61a31.11,31.11,0,0,0,13.77-2.88v7.77a32.49,32.49,0,0,1-13.77,2.72c-13.53,0-17.86-8.41-17.86-21.06s4.32-21.06,17.86-21.06c14,0,15.93,9.85,15.93,21.06v3.84h-25.3Zm-0.08-7.13h16.89c-0.08-5.28-.88-10.17-7.45-10.17C925.78,164.32,923.77,168.73,923.21,174.49Z"/><path class="cls-1" d="M974.7,181.62c0.64,5.52,3,9.61,9.37,9.61a31.11,31.11,0,0,0,13.77-2.88v7.77a32.48,32.48,0,0,1-13.77,2.72c-13.53,0-17.86-8.41-17.86-21.06s4.32-21.06,17.86-21.06c14,0,15.93,9.85,15.93,21.06v3.84H974.7Zm-0.08-7.13h16.89c-0.08-5.28-.88-10.17-7.45-10.17C977.18,164.32,975.18,168.73,974.62,174.49Z"/><path class="cls-1" d="M693.36,156.15H690v38.38a4.91,4.91,0,0,0,4.91,4.91h3.41V161.06A4.91,4.91,0,0,0,693.36,156.15Z"/><rect class="cls-1" x="672.47" y="174.3" width="43.29" height="6.99"/><path class="cls-2" d="M216.76,76h-11.2l-3,24.39c-0.07.66-.22,1.69-0.22,2,0,1.4.52,2,1.47,2,1.18,0,2.58-1,6-4.2,1.55-1.4,2.51-2.43,3.61-3.61l1.62,1.25a39.35,39.35,0,0,1-7,8c-3,2.73-4.79,3.83-6.71,3.83-2.51,0-4.05-2-4.05-5.23,0-.44.07-1.55,0.15-2.43L200.69,76h-6.63l0.22-2.8h6.78L202.24,64H207l-1.11,9.21H217Z"/><path class="cls-2" d="M240.34,109.62a2.4,2.4,0,0,1-2.65-2.51c0-.15.07-1,0.15-1.62L241.3,79a4.89,4.89,0,0,0,.07-0.81c0-1.25-.37-1.62-1.4-1.62-1.55,0-3.54,1.11-8,4.72a74.63,74.63,0,0,0-5.6,4.94l-2.87,22.7h-4.64l5.9-47.53-8.25-1.11,0.22-1.55L230.1,56,226.56,84.2c5.82-8.11,10.69-11.72,15.84-11.72q4,0,4,3.76a1.83,1.83,0,0,1-.07.66l-3.46,26.38a8,8,0,0,0-.07,1.25,1.68,1.68,0,0,0,.81,1.47l6.34-6.71,1.11,1C249,105.28,244.1,109.62,240.34,109.62Z"/><path class="cls-2" d="M274.24,87.07c-3.39,1.92-7.44,2.8-14.08,3.32-0.15,1.7-.22,2.43-0.22,3.39,0.07,7.52,2.06,11.72,6,11.72,3.32,0,7.37-3.17,9.36-4.64l1.25,1.4c-4.5,4.86-8.92,7.37-12.53,7.37-5.9,0-9.36-5.23-9.36-13.34,0-6.85,2.28-13.56,6.19-17.83,3.61-4,7.81-6,11.94-6a5.67,5.67,0,0,1,6,6A9.59,9.59,0,0,1,274.24,87.07Zm-4.72-11.72c-2.43,0-4.57,1.4-6.19,3.91a20.35,20.35,0,0,0-3,9.36A27.18,27.18,0,0,0,269.89,86c2.28-1.18,3.39-3.68,3.39-6.56C273.28,76.83,272,75.36,269.52,75.36Z"/><path class="cls-2" d="M355.51,108.89V71.6h-0.15l-15.7,36.85h-6.34l-16-36.85H317.2v37.29h-9.14v-51H321l16,37.36,15.7-37.36h12.75v51h-9.87Z"/><path class="cls-2" d="M382,108.89v-51h30.07l-1,7.22H392.21v14.3H408.5v7.22H392.21v15h20.56l-1,7.22H382Z"/><path class="cls-2" d="M446.08,65.41v43.48H435.83V65.41H422.64V57.89h36.7l-1,7.52H446.08Z"/><path class="cls-2" d="M500.83,108.89l-5.89-12.31a22.76,22.76,0,0,0-4.72-6.89,8.24,8.24,0,0,0-5.67-2.1h-2.43v21.3H471.94v-51h15.18q8.25,0,13.12,3.46a11.47,11.47,0,0,1,4.86,9.95,12.08,12.08,0,0,1-3.32,8.51,14.72,14.72,0,0,1-8.7,4.46v0.15a16.28,16.28,0,0,1,6.19,3.06q2.73,2.17,5.82,8.14l6.78,13.26H500.83ZM484.54,65h-2.43V80.59h2.28a12.64,12.64,0,0,0,7.3-1.88q2.73-1.88,2.73-6.45,0-3.76-2.28-5.53T484.54,65Z"/><path class="cls-2" d="M527.36,102.26q-7.07-7.37-7.07-18.86t7-18.83q7-7.41,18.83-7.41t18.86,7.33q7,7.33,7,18.9t-7,18.94q-7,7.3-18.86,7.3Q534.43,109.62,527.36,102.26Zm8-32.5q-4,4.86-4,13.63t4,13.63A13,13,0,0,0,546.07,102q7.15,0,10.94-5t3.79-14.11q0-8.33-4.16-13.15a13.36,13.36,0,0,0-10.57-4.83A13.09,13.09,0,0,0,535.39,69.76Z"/><path class="cls-2" d="M613.2,108.89v-51h10.17v51H613.2Z"/><path class="cls-2" d="M657,108.89H640.17v-51h15.7q13.63,0,21.15,6.6t7.52,18.83q0,11.87-7.22,18.72T657,108.89Zm-1-43.77h-5.75v36.55h4.72q9.87,0,14.26-4.57t4.38-13.49q0-9.21-4.57-13.85T656.09,65.12Z"/><path class="cls-2" d="M699.13,108.89v-51h30.07l-1,7.22H709.3v14.3h16.29v7.22H709.3v15h20.56l-1,7.22H699.13Z"/><path class="cls-2" d="M757.41,57.89h8.92l18.94,51H774.58L769.87,95.7H752.62L748,108.89h-9.51Zm4.05,12.23L755.05,88.4h12.45Z"/><path class="cls-2" d="M797.06,98.87a42.12,42.12,0,0,0,6.19,2.58,20.12,20.12,0,0,0,6.26,1,8.14,8.14,0,0,0,5.12-1.51,5.46,5.46,0,0,0,2-4.61q0-4.64-7.74-8.33t-11-7.44a13.61,13.61,0,0,1-3.28-9.28A12.54,12.54,0,0,1,799.31,61q4.75-3.79,12.56-3.8a36.42,36.42,0,0,1,6.85.66A27.05,27.05,0,0,1,825.28,60L822.48,67a36.78,36.78,0,0,0-5-1.84,17.64,17.64,0,0,0-4.9-.74,9.27,9.27,0,0,0-5.53,1.4A4.79,4.79,0,0,0,805.17,70q0,4.42,7.7,8.07t11,7.22q3.32,3.58,3.32,9.54,0,7-4.64,10.91t-12.82,3.9a38,38,0,0,1-7.88-.81,31.8,31.8,0,0,1-7.66-2.73Z"/><path class="cls-2" d="M867.87,108.89v-51h10.24v43.55H899l-1,7.44H867.87Z"/><path class="cls-2" d="M925.28,57.89h8.92l18.94,51H942.45L937.73,95.7H920.49l-4.64,13.19h-9.51Zm4.05,12.23L922.92,88.4h12.45Z"/><path class="cls-2" d="M981.87,108.89H964.41v-51h15.11q8,0,12.6,3.28a10.74,10.74,0,0,1,4.64,9.32q0,8.4-9.29,11.79v0.15q6.12,0.81,9.32,4.05a11.25,11.25,0,0,1,3.21,8.25,12.41,12.41,0,0,1-4.83,10.43Q990.35,108.89,981.87,108.89ZM977,65h-2.36V79.56h3A8.94,8.94,0,0,0,984,77.5a7.67,7.67,0,0,0,2.21-5.89,5.8,5.8,0,0,0-2.21-5Q981.8,65,977,65Zm1,21.66h-3.32v15.25h3.61q5.75,0,8.47-1.73t2.73-5.78q0-4.35-3.06-6A17.53,17.53,0,0,0,978,86.63Z"/><polygon class="cls-3" points="73.91 0.56 64.11 8.85 0 8.85 0 156.4 147.83 156.4 147.83 8.85 83.72 8.85 73.91 0.56"/><rect class="cls-4" x="35.27" y="44.37" width="4.55" height="84.32"/><rect class="cls-4" x="49.82" y="44.37" width="4.55" height="51.77"/><rect class="cls-4" x="64.36" y="44.37" width="4.55" height="84.32"/><rect class="cls-4" x="78.91" y="44.37" width="4.55" height="84.32"/><rect class="cls-4" x="93.46" y="44.37" width="4.55" height="84.32"/><rect class="cls-4" x="108.01" y="44.37" width="4.55" height="51.77"/></svg>