<svg id="Layer_1" data-name="Layer 1" xmlns="http://www.w3.org/2000/svg" viewBox="0 0 135.14 33.04"><defs><style>.cls-1{isolation:isolate;}.cls-2{fill:#393728;}</style></defs><title>text-replace-our-story</title><g id="Our_Story" data-name="Our Story" class="cls-1"><g class="cls-1"><path class="cls-2" d="M-317-.21c-5.72,0-7.67-4.82-7.67-9.65,0-6.12,3.13-15.3,11-15.3,4.9,0,7.63,3.89,7.63,9.61C-306.07-6.91-311-.21-317-0.21Zm2.81-23.54c-6.16,0-7.74,9.32-7.74,13.68,0,3,.61,8.46,5.29,8.46,6,0,7.85-9.39,7.85-13.5C-308.81-20.88-310.79-23.76-314.21-23.76Z" transform="translate(324.68 25.38)"/><path class="cls-2" d="M-291.89-.18c-0.94,0-1.4-.36-1.4-1.12,0-.25,0-0.47,0-0.61l0.5-4.1c-1.55,2-4.1,5.83-7.34,5.83-1.4,0-2.23-.61-2.23-1.73a4,4,0,0,1,0-.58l1.73-12.92c0-.11,0-0.22,0-0.29a0.75,0.75,0,0,0-.36-0.58l-3.06,3-0.54-.43c1.08-2.56,3.31-4.61,5.15-4.61a1,1,0,0,1,1.26,1.15,6.16,6.16,0,0,1,0,.79L-299.88-3.2a1.67,1.67,0,0,0,0,.36,0.59,0.59,0,0,0,.68.72c0.79,0,1.51-.47,3.82-2.41,0.72-.61,1.15-1,2.81-2.45l1.33-11h2.38L-290.73-3a2.44,2.44,0,0,0,0,.43,0.86,0.86,0,0,0,.36.61l3.13-3.2,0.5,0.47C-287.64-3.24-289.44-.18-291.89-0.18Z" transform="translate(324.68 25.38)"/><path class="cls-2" d="M-273.63-14.83a2.67,2.67,0,0,1-1.66-.86,49.55,49.55,0,0,0-5,5.54l-1.15,9.61h-2.38l1.94-14.83a2.61,2.61,0,0,0,0-.47,0.73,0.73,0,0,0-.4-0.54l-3.13,3.2-0.5-.4c0.54-1.58,2.77-4.75,5.11-4.75a1.19,1.19,0,0,1,1.3,1.22,12.43,12.43,0,0,1-.11,1.51l-0.58,4.21c1.15-2,4-6.95,6.95-6.95,1.26,0,1.73.47,1.73,1.12A2.29,2.29,0,0,1-273.63-14.83Z" transform="translate(324.68 25.38)"/><path class="cls-2" d="M-248.4-18.86h-0.9l-1.3-5.11a20.47,20.47,0,0,0-2.09-.11c-2.59,0-5.72,1.19-5.72,4.36,0,1.76.72,2.92,2.63,4.28l3.2,2.27c2.12,1.51,3.46,3.17,3.46,5.51A7.4,7.4,0,0,1-256.64-.4a16.36,16.36,0,0,1-4.93-.86l-1.19-.4,0.65-5.83h0.83L-260-2.2a10.14,10.14,0,0,0,2.45.32c3.49,0,5.8-2.05,5.8-5.08A4.72,4.72,0,0,0-254-11l-3.31-2.41c-2.56-1.76-3.6-3.1-3.6-5.65,0-3.6,2.84-6.33,7.31-6.33a21.88,21.88,0,0,1,5.79.94Z" transform="translate(324.68 25.38)"/><path class="cls-2" d="M-235.19-16.59h-5.47l-1.48,11.91c0,0.32-.11.83-0.11,1,0,0.68.25,1,.72,1s1.26-.5,3-2.05c0.76-.68,1.22-1.19,1.76-1.76L-236-5.94a19.21,19.21,0,0,1-3.42,3.89c-1.48,1.33-2.34,1.87-3.28,1.87-1.22,0-2-1-2-2.56,0-.22,0-0.76.07-1.19L-243-16.59h-3.24l0.11-1.37h3.31l0.58-4.5h2.34l-0.54,4.5h5.4Z" transform="translate(324.68 25.38)"/><path class="cls-2" d="M-228.85-.18c-3.31,0-5.4-2.77-5.4-7.38,0-6.12,3.67-10.76,8.35-10.76,3.42,0,5.4,2.63,5.4,7.2C-220.5-5-224.17-.18-228.85-0.18Zm2.48-17c-4.28,0-5.22,7.2-5.22,10.19,0,3.92,1,5.72,3.17,5.72,4.28,0,5.33-7.24,5.33-10.33C-223.09-15.3-224.21-17.21-226.37-17.21Z" transform="translate(324.68 25.38)"/><path class="cls-2" d="M-206.78-14.83a2.67,2.67,0,0,1-1.66-.86,49.55,49.55,0,0,0-5,5.54l-1.15,9.61H-217l1.94-14.83a2.61,2.61,0,0,0,0-.47,0.73,0.73,0,0,0-.4-0.54l-3.13,3.2-0.5-.4c0.54-1.58,2.77-4.75,5.11-4.75a1.19,1.19,0,0,1,1.3,1.22,12.43,12.43,0,0,1-.11,1.51l-0.58,4.21c1.15-2,4-6.95,6.95-6.95,1.26,0,1.73.47,1.73,1.12A2.29,2.29,0,0,1-206.78-14.83Z" transform="translate(324.68 25.38)"/><path class="cls-2" d="M-191.55-12c-1.12,2.27-2.74,5.25-3.56,6.84-1.33,2.41-3.1,5.62-4,7.09-1.19,2-3.38,5.76-6.44,5.76-1.33,0-2.12-.61-2.12-1.55A1.89,1.89,0,0,1-206,4.25a2.29,2.29,0,0,1,2,1.37,10.7,10.7,0,0,0,2.84-3.06c0.76-1.08,1.3-2.09,2.09-3.31L-202-15.33a0.72,0.72,0,0,0-.5-0.68l-2.12,2.7-0.54-.36c1.37-3.24,2.59-4.64,4-4.64,0.79,0,1.4.79,1.62,2.05l2.23,12.56c1.15-2.34,2.34-5,3.28-7a42.28,42.28,0,0,0,1.69-4,4.08,4.08,0,0,1-.68-2c0-1.12.61-1.66,1.94-1.66a1.37,1.37,0,0,1,1.51,1.48C-189.54-16.12-189.86-15.33-191.55-12Z" transform="translate(324.68 25.38)"/></g></g></svg>