<svg id="Layer_1" data-name="Layer 1" xmlns="http://www.w3.org/2000/svg" viewBox="0 0 135.14 33.04"><defs><style>.cls-1{isolation:isolate}.cls-2{fill:#393728}</style></defs><title>text-replace-our-story</title><g id="Our_Story" data-name="Our Story" class="cls-1"><g class="cls-1"><path class="cls-2" d="M-317-.21c-5.72 0-7.67-4.82-7.67-9.65 0-6.12 3.13-15.3 11-15.3 4.9 0 7.63 3.89 7.63 9.61C-306.07-6.91-311-.21-317-.21zm2.81-23.54c-6.16 0-7.74 9.32-7.74 13.68 0 3 .61 8.46 5.29 8.46 6 0 7.85-9.39 7.85-13.5-.02-5.77-2-8.65-5.42-8.65zm22.3 23.57c-.94 0-1.4-.36-1.4-1.12v-.61l.5-4.1c-1.55 2-4.1 5.83-7.34 5.83-1.4 0-2.23-.61-2.23-1.73a4 4 0 0 1 0-.58l1.73-12.92v-.29a.75.75 0 0 0-.36-.58l-3.06 3-.54-.43c1.08-2.56 3.31-4.61 5.15-4.61a1 1 0 0 1 1.26 1.15 6.16 6.16 0 0 1 0 .79l-1.7 13.18a1.67 1.67 0 0 0 0 .36.59.59 0 0 0 .68.72c.79 0 1.51-.47 3.82-2.41.72-.61 1.15-1 2.81-2.45l1.33-11h2.38L-290.73-3a2.44 2.44 0 0 0 0 .43.86.86 0 0 0 .36.61l3.13-3.2.5.47c-.9 1.45-2.7 4.51-5.15 4.51zm18.26-14.65a2.67 2.67 0 0 1-1.66-.86 49.55 49.55 0 0 0-5 5.54l-1.15 9.61h-2.38l1.94-14.83a2.61 2.61 0 0 0 0-.47.73.73 0 0 0-.4-.54l-3.13 3.2-.5-.4c.54-1.58 2.77-4.75 5.11-4.75a1.19 1.19 0 0 1 1.3 1.22 12.43 12.43 0 0 1-.11 1.51l-.58 4.21c1.15-2 4-6.95 6.95-6.95 1.26 0 1.73.47 1.73 1.12a2.29 2.29 0 0 1-2.12 2.39zm25.23-4.03h-.9l-1.3-5.11a20.47 20.47 0 0 0-2.09-.11c-2.59 0-5.72 1.19-5.72 4.36 0 1.76.72 2.92 2.63 4.28l3.2 2.27c2.12 1.51 3.46 3.17 3.46 5.51a7.4 7.4 0 0 1-7.52 7.26 16.36 16.36 0 0 1-4.93-.86l-1.19-.4.65-5.83h.83L-260-2.2a10.14 10.14 0 0 0 2.45.32c3.49 0 5.8-2.05 5.8-5.08A4.72 4.72 0 0 0-254-11l-3.31-2.41c-2.56-1.76-3.6-3.1-3.6-5.65 0-3.6 2.84-6.33 7.31-6.33a21.88 21.88 0 0 1 5.79.94zm13.21 2.27h-5.47l-1.48 11.91c0 .32-.11.83-.11 1 0 .68.25 1 .72 1s1.26-.5 3-2.05c.76-.68 1.22-1.19 1.76-1.76l.77.55a19.21 19.21 0 0 1-3.42 3.89c-1.48 1.33-2.34 1.87-3.28 1.87-1.22 0-2-1-2-2.56 0-.22 0-.76.07-1.19l1.63-12.66h-3.24l.11-1.37h3.31l.58-4.5h2.34l-.54 4.5h5.4zm6.34 16.41c-3.31 0-5.4-2.77-5.4-7.38 0-6.12 3.67-10.76 8.35-10.76 3.42 0 5.4 2.63 5.4 7.2 0 6.12-3.67 10.94-8.35 10.94zm2.48-17c-4.28 0-5.22 7.2-5.22 10.19 0 3.92 1 5.72 3.17 5.72 4.28 0 5.33-7.24 5.33-10.33 0-3.7-1.12-5.61-3.28-5.61zm19.59 2.35a2.67 2.67 0 0 1-1.66-.86 49.55 49.55 0 0 0-5 5.54l-1.15 9.61H-217l1.94-14.83a2.61 2.61 0 0 0 0-.47.73.73 0 0 0-.4-.54l-3.13 3.2-.5-.4c.54-1.58 2.77-4.75 5.11-4.75a1.19 1.19 0 0 1 1.3 1.22 12.43 12.43 0 0 1-.11 1.51l-.58 4.21c1.15-2 4-6.95 6.95-6.95 1.26 0 1.73.47 1.73 1.12a2.29 2.29 0 0 1-2.09 2.39zm15.23 2.83c-1.12 2.27-2.74 5.25-3.56 6.84-1.33 2.41-3.1 5.62-4 7.09-1.19 2-3.38 5.76-6.44 5.76-1.33 0-2.12-.61-2.12-1.55A1.89 1.89 0 0 1-206 4.25a2.29 2.29 0 0 1 2 1.37 10.7 10.7 0 0 0 2.84-3.06c.76-1.08 1.3-2.09 2.09-3.31L-202-15.33a.72.72 0 0 0-.5-.68l-2.12 2.7-.54-.36c1.37-3.24 2.59-4.64 4-4.64.79 0 1.4.79 1.62 2.05l2.23 12.56c1.15-2.34 2.34-5 3.28-7a42.28 42.28 0 0 0 1.69-4 4.08 4.08 0 0 1-.68-2c0-1.12.61-1.66 1.94-1.66a1.37 1.37 0 0 1 1.51 1.48c.03.76-.29 1.55-1.98 4.88z" transform="translate(324.68 25.38)"/></g></g></svg>