<svg id="Layer_1" data-name="Layer 1" xmlns="http://www.w3.org/2000/svg" viewBox="0 0 161.03 12.83"><defs><style>.cls-1{isolation:isolate}.cls-2{fill:#fff}</style></defs><title>text-replace-we-proudly-serve</title><g id="WE_PROUDLY_SERVE" data-name="WE PROUDLY SERVE" class="cls-1"><g class="cls-1"><path class="cls-2" d="M-179.92-.29h-.68l-3.85-10.94-3.71 10.94h-.68l-4.59-12.55h1.22l3.73 10.48 3.55-10.48h1l3.71 10.48 3.56-10.48h1.12zm6.16-.08v-12.46h6.5l-.14.94h-5.26v4.7h4.54v.94h-4.54v5h5.56l-.14.94h-6.52zm17.03-5.07a12 12 0 0 1-1.3-.31v5.38h-1.1v-12.46h2.83a4.93 4.93 0 0 1 3.21.93A3.37 3.37 0 0 1-152-9.14a3.75 3.75 0 0 1-1 2.68 3.58 3.58 0 0 1-2.72 1.1 6 6 0 0 1-1.01-.08zm.13-6.45h-1.4v5.2a9.06 9.06 0 0 0 1.1.3 5.12 5.12 0 0 0 1 .08 2.86 2.86 0 0 0 2.06-.75 2.62 2.62 0 0 0 .78-2 2.58 2.58 0 0 0-.94-2.14 4.13 4.13 0 0 0-2.61-.69zm14.09 11.52l-1.48-3a5.77 5.77 0 0 0-1.69-2.21 3.71 3.71 0 0 0-2.09-.56h-1v5.76h-1.1v-12.45h2.92A4.32 4.32 0 0 1-144-12a2.94 2.94 0 0 1 1 2.37 3 3 0 0 1-.74 2 3.48 3.48 0 0 1-2.05 1.11 3.55 3.55 0 0 1 1.54.91 7.51 7.51 0 0 1 1.36 2l1.6 3.17h-1.22zm-5.08-11.52h-1.13v4.82h1.08a4.4 4.4 0 0 0 2.58-.63 2.12 2.12 0 0 0 .87-1.84 2 2 0 0 0-.82-1.77 4.5 4.5 0 0 0-2.58-.58zm8.97 9.89a6.84 6.84 0 0 1-1.57-4.59 6.64 6.64 0 0 1 1.61-4.56 5.38 5.38 0 0 1 4.24-1.85 5.34 5.34 0 0 1 4.27 1.84 6.73 6.73 0 0 1 1.58 4.54A6.79 6.79 0 0 1-130.08-2a5.36 5.36 0 0 1-4.27 1.83A5.32 5.32 0 0 1-138.62-2zm.9-8.54a5.67 5.67 0 0 0-1.31 4 5.7 5.7 0 0 0 1.31 3.93 4.31 4.31 0 0 0 3.38 1.47 4.33 4.33 0 0 0 3.45-1.44 6 6 0 0 0 1.25-4.05 5.53 5.53 0 0 0-1.36-3.92 4.36 4.36 0 0 0-3.34-1.45 4.36 4.36 0 0 0-3.38 1.43zm21.27-2.29V-5a4.69 4.69 0 0 1-1.28 3.59 5 5 0 0 1-3.53 1.2 4.75 4.75 0 0 1-3.44-1.2 4.62 4.62 0 0 1-1.24-3.48v-8h1.1v7.54a4.53 4.53 0 0 0 .9 3.12 3.53 3.53 0 0 0 2.74 1 3.65 3.65 0 0 0 2.75-1 4.39 4.39 0 0 0 .92-3.11v-7.58h1.08zm6.59 12.46h-3.55v-12.46h3.73a6.35 6.35 0 0 1 4.58 1.67 5.93 5.93 0 0 1 1.74 4.49 6.21 6.21 0 0 1-1.7 4.67 6.54 6.54 0 0 1-4.8 1.63zm-.2-11.52h-2.25v10.58h1.91a6.56 6.56 0 0 0 4.4-1.28 4.91 4.91 0 0 0 1.49-3.94 5.24 5.24 0 0 0-1.45-4 5.69 5.69 0 0 0-4.1-1.36zm9.4 11.52v-12.46h1.1v11.54h5.67l-.11.92h-6.62zm15.39-12.46l-4.3 7.06v5.4h-1.1v-5.4l-4.27-7.06h1.22l3.62 6.08 3.65-6.08h1.17zM-78-2a7.05 7.05 0 0 0 1.36.59 5.24 5.24 0 0 0 1.61.23 2.8 2.8 0 0 0 1.81-.56 1.94 1.94 0 0 0 .69-1.6 2.1 2.1 0 0 0-.64-1.5 10 10 0 0 0-2.29-1.55A7.66 7.66 0 0 1-77.8-8.1a3 3 0 0 1-.67-1.9 2.61 2.61 0 0 1 1-2.18A4.16 4.16 0 0 1-74.8-13a6.71 6.71 0 0 1 1.54.17 6.92 6.92 0 0 1 1.38.48l-.4.94a7.3 7.3 0 0 0-1.17-.42 4.92 4.92 0 0 0-1.3-.17 3.08 3.08 0 0 0-1.93.53 1.77 1.77 0 0 0-.67 1.47 1.93 1.93 0 0 0 .7 1.51A14.12 14.12 0 0 0-74.28-7 6.83 6.83 0 0 1-72-5.25a3.06 3.06 0 0 1 .58 1.84 3 3 0 0 1-1 2.34 3.84 3.84 0 0 1-2.63.9 6.7 6.7 0 0 1-1.8-.23 7.46 7.46 0 0 1-1.58-.6zm9 1.63v-12.46h6.5l-.14.94h-5.26v4.7h4.54v.94h-4.54v5h5.56l-.14.94H-69zm16.43 0l-1.48-3a5.77 5.77 0 0 0-1.69-2.21 3.71 3.71 0 0 0-2.09-.56h-1v5.76h-1.1v-12.45H-57a4.32 4.32 0 0 1 2.87.87 2.94 2.94 0 0 1 1 2.37 3 3 0 0 1-.74 2 3.48 3.48 0 0 1-1.97 1.09 3.55 3.55 0 0 1 1.54.91 7.51 7.51 0 0 1 1.36 2l1.6 3.17h-1.22zm-5.08-11.52h-1.13v4.82h1.08a4.4 4.4 0 0 0 2.58-.63 2.12 2.12 0 0 0 .87-1.84 2 2 0 0 0-.82-1.77 4.5 4.5 0 0 0-2.57-.58zM-45.6-.29h-.67l-5-12.55h1.21l4.19 10.58 3.94-10.58h1.12zm6.53-.08v-12.46h6.5l-.14.94H-38v4.7h4.54v.94H-38v5h5.56l-.14.94h-6.52z" transform="translate(193.44 13.01)"/></g></g></svg>